<svg width="26" height="19" viewBox="0 0 26 19" fill="none" xmlns="http://www.w3.org/2000/svg">
<path d="M23.4246 11.3377L19.5403 11.0642L16.973 6.84886L15.6896 4.73816V4.15354C15.69 3.51906 15.1685 3.00444 14.5248 3.00405C14.3806 3.00385 14.2376 3.03025 14.1033 3.08148L10.4121 4.48496L10.691 3.56227C10.9112 2.78662 10.5539 1.96444 9.8325 1.58629L6.93617 0.0525884C6.72551 -0.0588612 6.46308 0.0123101 6.33989 0.214288L2.09152 6.92004L2.00186 6.86881C1.78723 6.74719 1.51328 6.82032 1.3901 7.03188C1.38732 7.03637 1.38494 7.04087 1.38236 7.04556L0.0523295 9.51368C-0.0623252 9.72681 0.0176157 9.99096 0.231651 10.1077L16.4073 18.9449C16.4737 18.981 16.5483 19 16.6243 19H23.3104C24.7951 18.9986 25.9986 17.8126 26 16.3489V14.0636C25.9952 12.6315 24.8735 11.4443 23.4246 11.3377ZM18.6034 11.2431L18.0914 11.4115L14.0803 6.27089L15.1114 5.50775L18.6034 11.2431ZM6.88857 1.03041L9.40839 2.36351C9.75771 2.54554 9.93227 2.94167 9.82892 3.31748L9.45858 4.54772L6.88539 3.02673L5.99434 2.49959L6.88857 1.03041ZM4.23445 5.24751L4.46396 4.894L5.9388 5.97526C6.68941 6.53074 7.07265 7.44561 6.93836 8.36145L6.88242 9.63843L2.87605 7.36231L4.23445 5.24751ZM23.3104 18.1164H16.7395L1.0499 9.54418L1.95584 7.86521L16.8104 16.29C16.8786 16.3287 16.9558 16.3491 17.0345 16.3489H25.1034C25.1034 17.3249 24.3006 18.1164 23.3104 18.1164ZM25.1034 15.4651H17.1541L14.0795 13.7202L15.1132 12.6814C15.2839 12.5048 15.2772 12.225 15.0979 12.0567C14.9223 11.8917 14.6454 11.8944 14.473 12.0628L13.2771 13.2646L11.5735 12.297L13.2821 10.9498C13.4753 10.7973 13.5066 10.5191 13.3519 10.3284C13.1972 10.138 12.9149 10.1071 12.7217 10.2596L10.7388 11.8234L9.27926 10.9962L11.4938 9.17699C11.6842 9.02076 11.71 8.74214 11.5517 8.55443C11.3932 8.36673 11.1104 8.34131 10.9199 8.49734L8.45089 10.5259L7.7578 10.1327L7.8304 8.43653C7.99643 7.2145 7.47692 5.99989 6.47359 5.26393L4.94618 4.14455L5.52322 3.25158L9.49131 5.59828C9.54467 5.62859 9.60378 5.64736 9.66488 5.65362C9.67559 5.65362 9.68491 5.65714 9.69582 5.65792C9.70653 5.6589 9.71328 5.66105 9.72181 5.66105C9.77715 5.66124 9.8323 5.65127 9.88407 5.63152L14.425 3.90523C14.5081 3.87394 14.6012 3.8847 14.6748 3.93397C14.7486 3.98383 14.7924 4.06653 14.7918 4.15491V4.64099L13.1779 5.83389C12.9799 5.98053 12.9401 6.25759 13.0888 6.45253C13.0898 6.4539 13.0908 6.45527 13.0918 6.45644L17.5747 12.2008C17.6905 12.3504 17.8903 12.4106 18.0714 12.3506L19.3314 11.9364L23.3598 12.2201C24.3401 12.2917 25.0996 13.0945 25.1034 14.0636V15.4651Z" fill="#FDDBB8"/>
</svg>
